<?xml version="1.0" encoding="UTF-8" standalone="no"?>
<!-- Created with Inkscape (http://www.inkscape.org/) -->

<svg
   xmlns:dc="http://purl.org/dc/elements/1.1/"
   xmlns:cc="http://creativecommons.org/ns#"
   xmlns:rdf="http://www.w3.org/1999/02/22-rdf-syntax-ns#"
   xmlns:svg="http://www.w3.org/2000/svg"
   xmlns="http://www.w3.org/2000/svg"
   xmlns:sodipodi="http://sodipodi.sourceforge.net/DTD/sodipodi-0.dtd"
   xmlns:inkscape="http://www.inkscape.org/namespaces/inkscape"
   width="210mm"
   height="297mm"
   viewBox="0 0 210 297"
   version="1.1"
   id="svg8"
   sodipodi:docname="rotation_arrow.svg"
   inkscape:version="0.92.5 (2060ec1f9f, 2020-04-08)">
  <defs
     id="defs2">
    <inkscape:path-effect
       effect="mirror_symmetry"
       start_point="-123.23828,126.61914"
       end_point="-123.23828,597.39258"
       center_point="-123.23828,362.00586"
       id="path-effect971"
       is_visible="true"
       mode="free"
       discard_orig_path="false"
       fuse_paths="false"
       oposite_fuse="false" />
    <inkscape:path-effect
       effect="mirror_symmetry"
       start_point="188.97656,651.74608"
       end_point="188.97656,1019.2227"
       center_point="188.97656,835.48439"
       id="path-effect880"
       is_visible="true"
       mode="free"
       discard_orig_path="false"
       fuse_paths="false"
       oposite_fuse="false" />
    <inkscape:path-effect
       effect="mirror_symmetry"
       start_point="188.97656,651.74609"
       end_point="188.97656,1019.2227"
       center_point="188.97656,835.48439"
       id="path-effect833"
       is_visible="true"
       mode="free"
       discard_orig_path="false"
       fuse_paths="false"
       oposite_fuse="false" />
    <inkscape:path-effect
       effect="mirror_symmetry"
       start_point="213.39453,197.80273"
       end_point="213.39453,391.31641"
       center_point="213.39453,294.55957"
       id="path-effect935"
       is_visible="true"
       mode="free"
       discard_orig_path="false"
       fuse_paths="false"
       oposite_fuse="false" />
    <inkscape:path-effect
       effect="mirror_symmetry"
       start_point="188.97656,651.74608"
       end_point="188.97656,1019.2227"
       center_point="188.97656,835.48439"
       id="path-effect833-6"
       is_visible="true"
       mode="free"
       discard_orig_path="false"
       fuse_paths="false"
       oposite_fuse="false" />
    <inkscape:path-effect
       effect="mirror_symmetry"
       start_point="188.97656,651.74608"
       end_point="188.97656,1019.2227"
       center_point="188.97656,835.48439"
       id="path-effect880-3"
       is_visible="true"
       mode="free"
       discard_orig_path="false"
       fuse_paths="false"
       oposite_fuse="false" />
    <inkscape:path-effect
       effect="mirror_symmetry"
       start_point="-123.23828,126.61914"
       end_point="-123.23828,597.39258"
       center_point="-123.23828,362.00586"
       id="path-effect971-2"
       is_visible="true"
       mode="free"
       discard_orig_path="false"
       fuse_paths="false"
       oposite_fuse="false" />
  </defs>
  <sodipodi:namedview
     id="base"
     pagecolor="#ffffff"
     bordercolor="#666666"
     borderopacity="1.0"
     inkscape:pageopacity="0.0"
     inkscape:pageshadow="2"
     inkscape:zoom="0.7"
     inkscape:cx="742.31279"
     inkscape:cy="611.07488"
     inkscape:document-units="mm"
     inkscape:current-layer="layer2"
     showgrid="false"
     inkscape:window-width="1920"
     inkscape:window-height="1016"
     inkscape:window-x="0"
     inkscape:window-y="27"
     inkscape:window-maximized="1"
     showguides="false" />
  <metadata
     id="metadata5">
    <rdf:RDF>
      <cc:Work
         rdf:about="">
        <dc:format>image/svg+xml</dc:format>
        <dc:type
           rdf:resource="http://purl.org/dc/dcmitype/StillImage" />
        <dc:title />
      </cc:Work>
    </rdf:RDF>
  </metadata>
  <g
     inkscape:label="Layer 1"
     inkscape:groupmode="layer"
     id="layer1">
    <circle
       style="fill:none;fill-opacity:1;stroke:#3a904c;stroke-width:0.20485526;stroke-opacity:1"
       id="path817-3"
       cx="56.46069"
       cy="86.458427"
       r="0" />
    <circle
       style="fill:none;fill-opacity:1;stroke:#3a904c;stroke-width:0.20485526;stroke-opacity:1"
       id="path817-6"
       cx="56.46069"
       cy="86.458427"
       r="0" />
    <path
       style="opacity:1;vector-effect:none;fill:#000000;fill-opacity:0.3627451;stroke:none;stroke-width:0.44968703;stroke-linecap:butt;stroke-linejoin:miter;stroke-miterlimit:4;stroke-dasharray:none;stroke-dashoffset:0;stroke-opacity:1"
       d="m 157.04911,157.80244 -5.9831,10.36267 -5.98413,10.36423 h 11.96723 11.96671 l -5.98413,-10.36423 z m -46.5677,96.07682 c -2.2215,-5.69646 -3.42557,-11.85347 -3.43235,-18.21284 2.8e-4,-27.70383 22.38599,-50.16224 50.00005,-50.16231 27.61406,7e-5 49.99976,22.45848 50.00005,50.16231 -0.022,20.66482 -12.67344,39.20139 -31.86937,46.69482 16.5243,-7.20746 27.21052,-23.51749 27.22004,-41.54526 -2.6e-4,-25.04651 -20.30422,-45.35085 -45.35072,-45.35124 -25.0465,2.7e-4 -45.35084,20.30473 -45.35124,45.35124 0.002,4.15843 0.57414,8.22482 1.65313,12.10986 l 0.10129,0.35914 c 0.0119,0.0754 0.0181,0.15156 0.0186,0.22789 -3e-5,0.83823 -0.67952,1.5177 -1.51774,1.51775 -0.55361,0 -1.06295,-0.30265 -1.32911,-0.78808 z"
       id="path817-62-3"
       inkscape:connector-curvature="0"
       sodipodi:nodetypes="ccccccccccccccccccccc" />
    <path
       style="opacity:1;vector-effect:none;fill:#000000;fill-opacity:0.3627451;stroke:none;stroke-width:0.56692916;stroke-linecap:butt;stroke-linejoin:miter;stroke-miterlimit:4;stroke-dasharray:none;stroke-dashoffset:0;stroke-opacity:1"
       d="m 188.97656,651.74609 c -23.89285,54.69921 -45.75195,42.89911 -59.98927,42.94188 13.0135,5.74532 25.19056,17.38547 14.7588,35.39601 -3.82,6.59528 -12.07533,10.63207 -18.55859,6.96094 -1.90288,-1.0775 -3.63826,-3.21772 -4.31836,-5.28515 -0.24321,-0.73932 0.24281,-1.2483 0.21484,-1.89063 0.91788,1.4013 2.29999,2.43401 3.9043,2.91602 2.38814,0.75481 6.17393,0.49813 8.59375,-1.49024 2.41983,-1.98833 3.05727,-4.37851 3.30664,-6.15625 0.49878,-3.55555 0.44646,-5.94907 -2.48828,-9.44922 -3.6537,-4.35775 -9.63395,-5.46993 -14.02539,-4.45898 -4.39144,1.01091 -7.99295,3.41931 -10.54883,7.04297 -3.90796,5.5406 -4.30548,12.36587 -2.47265,17.9375 1.83281,5.57166 5.64346,10.28039 10.82226,13.21289 14.30204,8.09847 29.23401,-0.84134 38.29688,-12.97656 9.10094,-12.18619 21.84824,-15.11315 32.5039,-6.36329 m 0,26.36133 C 84.608472,756.4456 0.00107042,841.32776 0,946.03516 c 0.02560405,24.03541 4.5764311,47.30599 12.972656,68.83594 l 0.539063,1.373 c 1.005961,1.8347 2.931054,2.9786 5.023437,2.9786 3.168051,-2e-4 5.736214,-2.5683 5.736328,-5.7364 -0.0018,-0.2885 -0.02525,-0.5764 -0.07031,-0.8613 l -0.382813,-1.3574 C 19.740296,996.58399 17.578612,981.21497 17.570312,965.49805 17.571796,870.8341 94.312623,794.0928 188.97656,794.0918 m 0,-142.34571 c 23.89285,54.69921 45.75195,42.89911 59.98927,42.94188 -13.0135,5.74532 -25.19056,17.38547 -14.7588,35.39601 3.82,6.59528 12.07533,10.63207 18.55859,6.96094 1.90288,-1.0775 3.63826,-3.21772 4.31836,-5.28515 0.24321,-0.73932 -0.24281,-1.2483 -0.21484,-1.89063 -0.91788,1.4013 -2.29999,2.43401 -3.9043,2.91602 -2.38814,0.75481 -6.17393,0.49813 -8.59375,-1.49024 -2.41983,-1.98833 -3.05727,-4.37851 -3.30664,-6.15625 -0.49878,-3.55555 -0.44646,-5.94907 2.48828,-9.44922 3.6537,-4.35775 9.63395,-5.46993 14.02539,-4.45898 4.39144,1.01091 7.99295,3.41931 10.54883,7.04297 3.90796,5.5406 4.30548,12.36587 2.47265,17.9375 -1.83281,5.57166 -5.64346,10.28039 -10.82226,13.21289 -14.30204,8.09847 -29.23401,-0.84134 -38.29688,-12.97656 -9.10094,-12.18619 -21.84824,-15.11315 -32.5039,-6.36329 m 0,26.36133 c 104.36809,2.9e-4 188.97549,84.88245 188.97656,189.58985 -0.0256,24.03541 -4.57643,47.30599 -12.97266,68.83594 l -0.53906,1.373 c -1.00596,1.8347 -2.93105,2.9786 -5.02344,2.9786 -3.16805,-2e-4 -5.73621,-2.5683 -5.73632,-5.7364 0.002,-0.2885 0.0252,-0.5764 0.0703,-0.8613 l 0.38281,-1.3574 c 4.07806,-14.68361 6.23975,-30.05263 6.24805,-45.76955 C 360.38132,870.8341 283.6405,794.0928 188.97656,794.0918"
       transform="scale(0.26458333)"
       id="path817-62"
       inkscape:connector-curvature="0"
       sodipodi:nodetypes="ccsscccccccsccsccccccccccc"
       inkscape:path-effect="#path-effect880"
       inkscape:original-d="m 188.97656,651.74609 c -23.89285,54.69921 -45.75195,42.89911 -59.98927,42.94188 13.0135,5.74532 25.19056,17.38547 14.7588,35.39601 -3.82,6.59528 -12.07533,10.63207 -18.55859,6.96094 -1.90288,-1.0775 -3.63826,-3.21772 -4.31836,-5.28515 -0.24321,-0.73932 0.24281,-1.2483 0.21484,-1.89063 0.91788,1.4013 2.29999,2.43401 3.9043,2.91602 2.38814,0.75481 6.17393,0.49813 8.59375,-1.49024 2.41983,-1.98833 3.05727,-4.37851 3.30664,-6.15625 0.49878,-3.55555 0.44646,-5.94907 -2.48828,-9.44922 -3.6537,-4.35775 -9.63395,-5.46993 -14.02539,-4.45898 -4.39144,1.01091 -7.99295,3.41931 -10.54883,7.04297 -3.90796,5.5406 -4.30548,12.36587 -2.47265,17.9375 1.83281,5.57166 5.64346,10.28039 10.82226,13.21289 14.30204,8.09847 29.23401,-0.84134 38.29688,-12.97656 9.10094,-12.18619 21.84824,-15.11315 32.5039,-6.36329 m 0,26.36133 C 84.608472,756.4456 0.00107042,841.32776 0,946.03516 c 0.02560405,24.03541 4.5764311,47.30599 12.972656,68.83594 l 0.539063,1.373 c 1.005961,1.8347 2.931054,2.9786 5.023437,2.9786 3.168051,-2e-4 5.736214,-2.5683 5.736328,-5.7364 -0.0018,-0.2885 -0.02525,-0.5764 -0.07031,-0.8613 l -0.382813,-1.3574 C 19.740296,996.58399 17.578612,981.21497 17.570312,965.49805 17.571796,870.8341 94.312623,794.0928 188.97656,794.0918" />
    <path
       style="fill:#000000;fill-opacity:0.3627451;stroke:none;stroke-width:0.99999994px;stroke-linecap:butt;stroke-linejoin:miter;stroke-opacity:1"
       d="M 97.875 733.34961 C 61.2497 754.5656 32.699443 789.24025 15.408203 842.67969 C 26.176544 825.79176 38.13038 809.96399 52.207031 796.3457 C 76.858129 770.43241 97.041325 759.97781 112.67188 756.4375 C 102.60155 750.3136 98.431333 742.12825 97.875 733.34961 z "
       transform="scale(0.26458333)"
       id="path888" />
    <path
       style="opacity:1;vector-effect:none;fill:#000000;fill-opacity:0.3627451;stroke:none;stroke-width:1.69960451;stroke-linecap:butt;stroke-linejoin:miter;stroke-miterlimit:4;stroke-dasharray:none;stroke-dashoffset:0;stroke-opacity:1"
       d="m -123.23828,126.61914 c -23.89285,54.69921 -45.75292,42.89864 -59.99024,42.94141 13.0135,5.74532 25.19153,17.38594 14.75977,35.39648 -3.82,6.59528 -12.07533,10.63207 -18.55859,6.96094 -1.90288,-1.0775 -3.63826,-3.21773 -4.31836,-5.28516 -0.24321,-0.73932 0.24281,-1.24829 0.21484,-1.89062 0.91788,1.4013 2.29999,2.434 3.9043,2.91601 2.38814,0.75481 6.17393,0.49814 8.59375,-1.49023 2.41983,-1.98833 3.05727,-4.37851 3.30664,-6.15625 0.49878,-3.55555 0.44646,-5.94907 -2.48828,-9.44922 -3.6537,-4.35775 -9.63395,-5.46993 -14.02539,-4.45898 -4.39144,1.01091 -7.99295,3.4193 -10.54883,7.04296 -3.90796,5.5406 -4.30549,12.36587 -2.47266,17.9375 1.83281,5.57166 5.64347,10.2804 10.82227,13.2129 14.30204,8.09846 29.234,-0.84135 38.29687,-12.97657 9.10094,-12.18619 21.84825,-15.11314 32.50391,-6.36328 m -91.10156,3.26563 c -36.6253,21.21599 -65.17556,55.89064 -82.4668,109.33007 10.76834,-16.88792 22.72218,-32.71569 36.79883,-46.33398 24.6511,-25.91329 44.83428,-36.36789 60.46484,-39.9082 -10.07033,-6.1239 -14.24054,-14.30925 -14.79687,-23.08789 z m 91.10156,23.0957 c -104.36809,2.6e-4 -188.97547,84.88246 -188.97656,189.58984 0.0831,78.10326 47.89962,148.16275 120.45117,176.48438 -62.45405,-27.2408 -102.84293,-88.88503 -102.87891,-157.02149 9.8e-4,-94.66397 76.74037,-171.40477 171.4043,-171.40625 m 0,-142.3457 c 23.89285,54.69921 45.75292,42.89864 59.99024,42.94141 -13.0135,5.74532 -25.19153,17.38594 -14.75977,35.39648 3.82,6.59528 12.07533,10.63207 18.55859,6.96094 1.90288,-1.0775 3.63826,-3.21773 4.31836,-5.28516 0.24321,-0.73932 -0.24281,-1.24829 -0.21484,-1.89062 -0.91788,1.4013 -2.29999,2.434 -3.9043,2.91601 -2.38814,0.75481 -6.17393,0.49814 -8.59375,-1.49023 -2.41983,-1.98833 -3.05727,-4.37851 -3.30664,-6.15625 -0.49878,-3.55555 -0.44646,-5.94907 2.48828,-9.44922 3.6537,-4.35775 9.63395,-5.46993 14.02539,-4.45898 4.39144,1.01091 7.99295,3.4193 10.54883,7.04296 3.90796,5.5406 4.30549,12.36587 2.47266,17.9375 -1.83281,5.57166 -5.64347,10.2804 -10.82227,13.2129 -14.30204,8.09846 -29.234,-0.84135 -38.29687,-12.97657 -9.10094,-12.18619 -21.84825,-15.11314 -32.50391,-6.36328 m 91.10156,3.26563 c 36.6253,21.21599 65.17556,55.89064 82.4668,109.33007 -10.76834,-16.88792 -22.72218,-32.71569 -36.79883,-46.33398 -24.6511,-25.91329 -44.83428,-36.36789 -60.46484,-39.9082 10.07033,-6.1239 14.24054,-14.30925 14.79687,-23.08789 z m -91.10156,23.0957 C -18.87019,231.31862 65.73719,316.20082 65.73828,420.9082 65.65518,499.01146 17.83866,569.07095 -54.71289,597.39258 7.74116,570.15178 48.13004,508.50755 48.16602,440.37109 48.16504,345.70712 -28.57435,268.96632 -123.23828,268.96484"
       transform="matrix(0.26458333,0,0,0.26458333,84.666668,-26.836309)"
       id="path817-62-3-5"
       inkscape:connector-curvature="0"
       sodipodi:nodetypes="ccsscccccccsccsccccccccccc"
       inkscape:path-effect="#path-effect971"
       inkscape:original-d="m -123.23828,126.61914 c -23.89285,54.69921 -45.75292,42.89864 -59.99024,42.94141 13.0135,5.74532 25.19153,17.38594 14.75977,35.39648 -3.82,6.59528 -12.07533,10.63207 -18.55859,6.96094 -1.90288,-1.0775 -3.63826,-3.21773 -4.31836,-5.28516 -0.24321,-0.73932 0.24281,-1.24829 0.21484,-1.89062 0.91788,1.4013 2.29999,2.434 3.9043,2.91601 2.38814,0.75481 6.17393,0.49814 8.59375,-1.49023 2.41983,-1.98833 3.05727,-4.37851 3.30664,-6.15625 0.49878,-3.55555 0.44646,-5.94907 -2.48828,-9.44922 -3.6537,-4.35775 -9.63395,-5.46993 -14.02539,-4.45898 -4.39144,1.01091 -7.99295,3.4193 -10.54883,7.04296 -3.90796,5.5406 -4.30549,12.36587 -2.47266,17.9375 1.83281,5.57166 5.64347,10.2804 10.82227,13.2129 14.30204,8.09846 29.234,-0.84135 38.29687,-12.97657 9.10094,-12.18619 21.84825,-15.11314 32.50391,-6.36328 m -91.10156,3.26563 c -36.6253,21.21599 -65.17556,55.89064 -82.4668,109.33007 10.76834,-16.88792 22.72218,-32.71569 36.79883,-46.33398 24.6511,-25.91329 44.83428,-36.36789 60.46484,-39.9082 -10.07033,-6.1239 -14.24054,-14.30925 -14.79687,-23.08789 z m 91.10156,23.0957 c -104.36809,2.6e-4 -188.97547,84.88246 -188.97656,189.58984 0.0831,78.10326 47.89962,148.16275 120.45117,176.48438 -62.45405,-27.2408 -102.84293,-88.88503 -102.87891,-157.02149 9.8e-4,-94.66397 76.74037,-171.40477 171.4043,-171.40625"
       inkscape:transform-center-x="-0.75595238"
       inkscape:transform-center-y="-21.166667" />
    <path
       style="opacity:1;vector-effect:none;fill:#000000;fill-opacity:1;stroke:none;stroke-width:1.69960451;stroke-linecap:butt;stroke-linejoin:miter;stroke-miterlimit:4;stroke-dasharray:none;stroke-dashoffset:0;stroke-opacity:1"
       d="m 585.71484,25.705078 c -23.89285,54.699209 -45.75291,42.898636 -59.99023,42.941406 13.0135,5.74532 25.19152,17.385945 14.75977,35.396486 -3.82,6.59528 -12.07534,10.63207 -18.5586,6.96094 -1.90288,-1.0775 -3.63826,-3.21773 -4.31836,-5.28516 -0.24321,-0.73932 0.24282,-1.2483 0.21485,-1.89063 0.91788,1.4013 2.29998,2.43401 3.90429,2.91602 2.38814,0.75481 6.17393,0.49814 8.59375,-1.49023 2.41983,-1.98833 3.05727,-4.37851 3.30664,-6.156254 0.49878,-3.55555 0.44646,-5.949069 -2.48828,-9.449218 -3.6537,-4.35775 -9.63395,-5.469935 -14.02539,-4.458985 -4.39144,1.01091 -7.99295,3.419309 -10.54883,7.042969 -3.90796,5.5406 -4.30548,12.365868 -2.47265,17.937498 1.83281,5.57166 5.64346,10.28039 10.82226,13.21289 14.30204,8.09846 29.23401,-0.84134 38.29688,-12.97656 9.10094,-12.18619 21.84824,-15.113141 32.5039,-6.36328 10.65566,-8.749861 23.40297,-5.82291 32.50391,6.36328 9.06287,12.13522 23.99484,21.07502 38.29687,12.97656 5.1788,-2.9325 8.98946,-7.64123 10.82227,-13.21289 1.83283,-5.57163 1.4353,-12.396898 -2.47266,-17.937498 -2.55588,-3.62366 -6.15738,-6.032059 -10.54882,-7.042969 -4.39144,-1.01095 -10.37169,0.101235 -14.02539,4.458985 -2.93474,3.500149 -2.98707,5.893668 -2.48829,9.449218 0.24937,1.777744 0.88682,4.167924 3.30665,6.156254 2.41981,1.98837 6.20561,2.24504 8.59374,1.49023 1.60431,-0.48201 2.98642,-1.51472 3.9043,-2.91602 -0.028,0.64233 0.45806,1.15131 0.21485,1.89063 -0.6801,2.06743 -2.41548,4.20766 -4.31836,5.28516 -6.48326,3.67113 -14.7386,-0.36566 -18.5586,-6.96094 -10.43176,-18.010541 1.74627,-29.651166 14.75977,-35.396486 -14.23732,-0.04277 -36.09739,11.757803 -59.99024,-42.941406 z m -91.10156,81.603512 c -36.6253,21.21599 -65.17556,55.89065 -82.4668,109.33008 10.76834,-16.88792 22.72218,-32.71569 36.79883,-46.33398 24.6511,-25.91329 44.83429,-36.3679 60.46485,-39.90821 -10.07033,-6.1239 -14.24055,-14.30925 -14.79688,-23.08789 z m 182.20313,0 c -0.55633,8.77864 -4.72655,16.96399 -14.79688,23.08789 15.63056,3.54031 35.81375,13.99492 60.46485,39.90821 14.07664,13.61829 26.03048,29.44606 36.79882,46.33398 -17.29124,-53.43943 -45.84149,-88.11409 -82.46679,-109.33008 z m -91.10157,23.09571 c -104.36808,2.6e-4 -188.97547,84.88246 -188.97656,189.58984 0.0831,78.10326 47.89962,148.16275 120.45117,176.48438 -62.45405,-27.2408 -102.84292,-88.88379 -102.8789,-157.02025 9.8e-4,-94.66397 76.73891,-171.40601 171.40284,-171.40749 94.66393,0.001 171.40477,76.74228 171.40575,171.40625 -0.036,68.13646 -40.42486,129.78069 -102.87891,157.02149 C 726.79178,468.15689 774.60831,398.0974 774.69141,319.99414 774.69032,215.28676 690.08293,130.40456 585.71484,130.4043 Z"
       id="path817-62-3-5-9"
       inkscape:connector-curvature="0"
       sodipodi:nodetypes="ccsscccccccsccscsccscccccccssccccccccccccccccccccc"
       inkscape:transform-center-x="-0.010480589"
       inkscape:transform-center-y="-20.738416"
       transform="scale(0.26458333)" />
    <path
       style="opacity:1;vector-effect:none;fill:#00ff00;fill-opacity:1;stroke:none;stroke-width:0.44968703;stroke-linecap:butt;stroke-linejoin:miter;stroke-miterlimit:4;stroke-dasharray:none;stroke-dashoffset:0;stroke-opacity:1"
       d="M 264.51331,2.6589492 C 258.19166,17.131448 252.40785,14.009213 248.6409,14.020529 c 3.44315,1.520116 6.66525,4.600032 3.90518,9.365321 -1.0107,1.745001 -3.19493,2.813068 -4.91029,1.841748 -0.50347,-0.285088 -0.96262,-0.851357 -1.14257,-1.398365 -0.0643,-0.195612 0.0642,-0.330279 0.0568,-0.500229 0.24286,0.37076 0.60854,0.643998 1.03301,0.77153 0.63186,0.19971 1.63352,0.1318 2.27377,-0.39429 0.64024,-0.526079 0.8089,-1.158481 0.87488,-1.628842 0.13197,-0.940739 0.11812,-1.574025 -0.65836,-2.500106 -0.96671,-1.152988 -2.54898,-1.447253 -3.71088,-1.179773 -1.16191,0.26747 -2.11481,0.904692 -2.79105,1.863452 -1.03398,1.465951 -1.13916,3.271803 -0.65422,4.745963 0.48493,1.474169 1.49316,2.72002 2.86339,3.495911 3.78408,2.142717 7.73483,-0.222605 10.13271,-3.433382 2.40796,-3.224262 5.78068,-3.998685 8.59999,-1.683617 2.81931,-2.315068 6.19204,-1.540645 8.6,1.683617 2.39788,3.210777 6.34863,5.576099 10.13271,3.433382 1.37023,-0.775891 2.37846,-2.021742 2.86339,-3.495911 0.48494,-1.47416 0.37976,-3.280012 -0.65422,-4.745963 -0.67624,-0.95876 -1.62914,-1.595982 -2.79104,-1.863452 -1.16191,-0.26748 -2.74418,0.02679 -3.71089,1.179773 -0.77648,0.926081 -0.79033,1.559367 -0.65836,2.500106 0.066,0.470361 0.23464,1.102763 0.87489,1.628842 0.64024,0.52609 1.6419,0.594 2.27376,0.39429 0.42447,-0.127532 0.79015,-0.40077 1.03301,-0.77153 -0.007,0.16995 0.12119,0.304617 0.0568,0.500229 -0.17994,0.547008 -0.6391,1.113277 -1.14257,1.398365 -1.71536,0.97132 -3.89958,-0.09675 -4.91029,-1.841748 -2.76007,-4.765289 0.46203,-7.845205 3.90519,-9.365321 -3.76697,-0.01132 -9.55078,3.110919 -15.87243,-11.3615798 z M 240.40936,24.249878 c -9.69045,5.613397 -17.24437,14.787734 -21.81934,28.926917 2.84912,-4.468262 6.01191,-8.656027 9.73635,-12.259199 6.52227,-6.856225 11.86241,-9.62234 15.99799,-10.559047 -2.66444,-1.620282 -3.76781,-3.785989 -3.915,-6.108671 z m 48.20791,0 c -0.1472,2.322682 -1.25057,4.488389 -3.91501,6.108671 4.13559,0.936707 9.47572,3.702822 15.99799,10.559047 3.72445,3.603172 6.88723,7.790937 9.73636,12.259199 -4.57498,-14.139183 -12.1289,-23.31352 -21.81934,-28.926917 z m -24.10396,6.11074 c -27.61405,6.8e-5 -49.99976,22.458484 -50.00005,50.162311 0.022,20.664821 12.67344,39.201391 31.86937,46.694831 -16.5243,-7.20747 -27.21052,-23.51717 -27.22004,-41.544946 2.6e-4,-25.046509 20.30384,-45.351174 45.35034,-45.351565 25.0465,2.64e-4 45.35084,20.304728 45.3511,45.351237 -0.01,18.027774 -10.69574,34.337804 -27.22004,41.545274 19.19593,-7.49344 31.84738,-26.03001 31.86937,-46.694831 -2.6e-4,-27.703827 -22.38599,-50.162243 -50.00005,-50.162311 z"
       id="path817-62-3-5-9-4"
       inkscape:connector-curvature="0"
       sodipodi:nodetypes="ccsscccccccsccscsccscccccccssccccccccccccccccccccc"
       inkscape:transform-center-x="-0.010480589"
       inkscape:transform-center-y="-20.738416" />
    <path
       style="color:#000000;font-style:normal;font-variant:normal;font-weight:normal;font-stretch:normal;font-size:medium;line-height:normal;font-family:sans-serif;font-variant-ligatures:normal;font-variant-position:normal;font-variant-caps:normal;font-variant-numeric:normal;font-variant-alternates:normal;font-feature-settings:normal;text-indent:0;text-align:start;text-decoration:none;text-decoration-line:none;text-decoration-style:solid;text-decoration-color:#000000;letter-spacing:normal;word-spacing:normal;text-transform:none;writing-mode:lr-tb;direction:ltr;text-orientation:mixed;dominant-baseline:auto;baseline-shift:baseline;text-anchor:start;white-space:normal;shape-padding:0;clip-rule:nonzero;display:inline;overflow:visible;visibility:visible;opacity:1;isolation:auto;mix-blend-mode:normal;color-interpolation:sRGB;color-interpolation-filters:linearRGB;solid-color:#000000;solid-opacity:1;vector-effect:none;fill:#0000ff;fill-opacity:1;fill-rule:nonzero;stroke:none;stroke-width:5.6692915;stroke-linecap:butt;stroke-linejoin:bevel;stroke-miterlimit:4;stroke-dasharray:none;stroke-dashoffset:0;stroke-opacity:1;color-rendering:auto;image-rendering:auto;shape-rendering:auto;text-rendering:auto;enable-background:accumulate"
       d="m 999.73438,10.048828 c -23.89286,54.69921 -45.75099,42.898637 -59.98829,42.941406 13.01348,5.745321 25.18958,17.385944 14.75782,35.396485 -3.81997,6.595279 -12.07339,10.632068 -18.55664,6.960937 -1.90288,-1.077498 -3.64019,-3.217724 -4.32032,-5.285156 -0.24302,-0.739321 0.24282,-1.248294 0.21485,-1.890625 0.91789,1.401298 2.3,2.434005 3.90429,2.916016 2.38814,0.754809 6.17391,0.498137 8.59375,-1.490235 2.41981,-1.98833 3.05727,-4.378507 3.30664,-6.15625 0.49879,-3.555549 0.44645,-5.94907 -2.48828,-9.449218 -3.6537,-4.35775 -9.63395,-5.469933 -14.02539,-4.458985 -4.39147,1.01091 -7.99296,3.419309 -10.54883,7.042969 -3.90795,5.540602 -4.3055,12.365872 -2.47265,17.9375 1.8328,5.571658 5.64344,10.280388 10.82226,13.212888 14.30204,8.09846 29.23403,-0.84134 38.29688,-12.97656 9.10095,-12.186187 21.84825,-15.113145 32.50391,-6.363281 10.65562,-8.749864 23.40292,-5.822906 32.50392,6.363281 9.0628,12.13522 23.9948,21.07502 38.2969,12.97656 5.1788,-2.9325 8.9894,-7.64123 10.8222,-13.212888 1.8329,-5.571628 1.4353,-12.396898 -2.4726,-17.9375 -2.5559,-3.62366 -6.1574,-6.032059 -10.5489,-7.042969 -4.3914,-1.010948 -10.3716,0.101253 -14.0254,4.458985 -2.9347,3.500148 -2.987,5.893669 -2.4882,9.449218 0.2494,1.777743 0.8868,4.16792 3.3066,6.15625 2.4198,1.988372 6.2056,2.245044 8.5938,1.490235 1.6043,-0.482011 2.9864,-1.514718 3.9043,-2.916016 -0.026,0.642331 0.4582,1.151304 0.2148,1.890625 -0.6801,2.067432 -2.4155,4.207658 -4.3184,5.285156 -6.4832,3.671131 -14.7385,-0.365669 -18.5586,-6.960937 -10.4317,-18.010541 1.7463,-29.651164 14.7598,-35.396485 -14.2374,-0.04278 -36.0974,11.757804 -59.99022,-42.941406 z m 0.002,6.279297 c 11.20472,23.597471 22.21802,34.381955 32.60552,38.333984 5.725,2.178127 11.0518,2.423021 15.7832,2.148438 -2.7524,2.243611 -5.267,4.781663 -7.0352,7.869141 -3.8253,6.679559 -4.1626,15.480467 1.4258,25.128906 2.2282,3.846928 5.6686,6.898451 9.6543,8.533203 3.9857,1.634751 8.6699,1.785823 12.7481,-0.523438 2.6603,-1.50641 4.6732,-3.989713 5.619,-6.865234 0.5653,-3.377615 -1.326,-5.646276 -2.6188,-6.840123 -1.698,1.251734 -3.1331,3.672816 -5.0081,4.263951 l -0.043,0.0059 c -1.3914,0.439718 -4.5438,0.169012 -5.9357,-0.974609 -1.7475,-1.435922 -2.0969,-2.895355 -2.3027,-4.361328 -0.4707,-3.355208 -0.683,-4.209052 1.8536,-7.234375 2.8278,-3.372756 7.8184,-4.296435 11.2187,-3.513672 3.7626,0.86612 6.6932,2.829965 8.8672,5.91211 3.3281,4.718577 3.6759,10.618575 2.0958,15.421874 -1.6166,4.91412 -4.9581,9.039807 -9.5236,11.624997 -6.3937,3.62045 -12.6135,3.42608 -18.6386,0.94531 -6.025,-2.48076 -11.7037,-7.409492 -15.9883,-13.146478 -4.865,-6.514292 -10.8804,-10.780711 -17.3711,-12.113282 -5.8677,-1.204679 -11.9383,0.480193 -17.40622,4.310547 -5.46913,-3.832792 -11.53683,-5.515558 -17.40625,-4.310547 -6.49074,1.332571 -12.5041,5.59899 -17.36914,12.113282 -4.28451,5.736986 -9.96514,10.665718 -15.99024,13.146478 -6.02509,2.48077 -12.24488,2.67514 -18.63867,-0.94531 -4.56548,-2.58519 -7.91279,-6.710877 -9.5293,-11.624997 -1.5801,-4.803299 -1.23243,-10.703297 2.09571,-15.421874 2.17394,-3.082145 5.11056,-5.04599 8.87304,-5.91211 3.40022,-0.782763 8.38501,0.140905 11.2129,3.513672 2.53659,3.025323 2.32421,3.879167 1.85351,7.234375 -0.20561,1.465784 -0.54738,2.925391 -2.29492,4.361328 -1.39185,1.143662 -4.55212,1.414327 -5.94336,0.974609 l -0.0371,-0.0059 c -1.89869,-0.434725 -2.90303,-1.889117 -4.88905,-4.023837 -1.56951,1.582402 -3.33929,4.647886 -2.73788,6.592209 v 0.0078 c 0.94594,2.875446 2.95099,5.358813 5.61133,6.865234 4.07818,2.309261 8.77012,2.158189 12.75585,0.523438 3.98578,-1.634752 7.42811,-4.68626 9.65625,-8.533203 5.58841,-9.648439 5.24136,-18.449347 1.41602,-25.128906 -1.7681,-3.087372 -4.27505,-5.625583 -7.02734,-7.869141 4.72924,0.273789 10.06167,0.02842 15.7832,-2.148438 10.38746,-3.952032 21.40087,-14.736513 32.60547,-38.333984 z m -91.10156,75.324219 c -36.62533,21.215986 -65.17558,55.890646 -82.4668,109.330076 10.76833,-16.88792 22.72025,-32.71569 36.79687,-46.33398 24.6511,-25.91329 44.83431,-36.3679 60.46485,-39.90821 -10.07033,-6.1239 -14.23862,-14.30925 -14.79492,-23.087886 z m 182.20318,0 c -0.5564,8.778636 -4.7285,16.963986 -14.7988,23.087886 15.6305,3.54031 35.8137,13.99492 60.4648,39.90821 14.0767,13.61829 26.0324,29.44606 36.8008,46.33398 -17.2913,-53.43943 -45.8415,-88.11409 -82.4668,-109.330076 z m -183.68561,4.52539 c 1.34552,6.406806 4.2747,12.531616 10.32032,17.533206 -15.40955,4.69456 -34.14272,15.44569 -56.47852,38.90234 -0.0113,0.01 -0.018,0.0198 -0.0293,0.0293 -8.27856,8.0125 -15.6627,16.89639 -22.64843,26.14648 16.67338,-38.2017 39.94817,-65.05243 68.83593,-82.611326 z m 185.16801,0 c 28.8875,17.558896 52.1549,44.409886 68.8281,82.611326 -6.9857,-9.25009 -14.3601,-18.13398 -22.6386,-26.14648 -22.3478,-23.47745 -41.0937,-34.23418 -56.5098,-38.93164 6.0461,-5.00197 8.975,-11.12586 10.3203,-17.533206 z m -92.58597,18.570316 c -104.36807,2.5e-4 -188.97547,84.88246 -188.97657,189.58984 0.0832,78.10325 47.89963,148.16271 120.45117,176.48438 -62.45404,-27.24084 -102.84292,-88.88307 -102.8789,-157.01954 9.8e-4,-94.66397 76.74036,-171.40672 171.4043,-171.4082 94.66397,0.001 171.40327,76.74228 171.40437,171.40625 -0.038,68.13645 -40.4229,129.78065 -102.877,157.02149 72.5516,-28.32167 120.3661,-98.38113 120.4492,-176.48438 -9e-4,-104.70738 -84.6084,-189.58959 -188.97657,-189.58984 z m 0.002,2.83789 c 102.83117,2.5e-4 186.14167,83.57351 186.14257,186.7539 -0.051,45.89157 -17.1044,88.73777 -45.7969,121.94141 21.3547,-29.2266 33.8678,-64.75353 33.8887,-102.47461 v -0.008 c -10e-4,-96.19593 -78.0385,-174.24117 -174.23437,-174.24219 -96.19589,0.002 -174.24121,78.04633 -174.24219,174.24219 v 0.008 c 0.0189,37.76018 12.56879,73.32146 33.96484,102.56445 -28.73812,-33.21532 -45.81256,-76.0998 -45.86328,-122.03125 v -0.008 C 813.5998,201.15488 896.90777,117.586 999.73643,117.58575 Z"
       transform="scale(0.26458333)"
       id="path817-62-3-5-9-4-8"
       inkscape:connector-curvature="0"
       sodipodi:nodetypes="cccccccccccsccccccccccccccccccccccccccccccccccccscsccsccccccccccccccccccccccccccccccccccccccccccccccccccccccccccccccccc" />
    <path
       style="opacity:1;vector-effect:none;fill:#ff0000;fill-opacity:1;stroke:none;stroke-width:0.44968703;stroke-linecap:butt;stroke-linejoin:miter;stroke-miterlimit:4;stroke-dasharray:none;stroke-dashoffset:0;stroke-opacity:1"
       d="m 377.40923,-3.2154167 c -6.32165,14.4724987 -12.10546,11.3502636 -15.87242,11.3615796 3.44316,1.5201161 6.66526,4.6000321 3.90519,9.3653211 -1.01071,1.745001 -3.19493,2.813068 -4.91029,1.841748 -0.50347,-0.285088 -0.96263,-0.851357 -1.14257,-1.398365 -0.0643,-0.195612 0.0642,-0.330279 0.0568,-0.500229 0.24286,0.37076 0.60854,0.643998 1.03301,0.77153 0.63186,0.19971 1.63352,0.1318 2.27376,-0.39429 0.64025,-0.526079 0.80891,-1.158481 0.87489,-1.628842 0.13196,-0.940739 0.11812,-1.574025 -0.65836,-2.500106 -0.96671,-1.152988 -2.54898,-1.447253 -3.71089,-1.179773 -1.1619,0.26747 -2.1148,0.904692 -2.79104,1.863452 -1.03398,1.465951 -1.13916,3.271803 -0.65422,4.745963 0.48493,1.474169 1.49316,2.72002 2.86339,3.495911 3.78408,2.142717 7.73483,-0.222605 10.13271,-3.433382 2.40796,-3.224262 5.78068,-3.998685 8.59999,-1.683617 2.81931,-2.315068 6.19204,-1.540645 8.6,1.683617 2.39788,3.210777 6.34863,5.576099 10.13271,3.433382 1.37022,-0.775891 2.37846,-2.021742 2.86339,-3.495911 0.48494,-1.47416 0.37976,-3.280012 -0.65422,-4.745963 -0.67625,-0.95876 -1.62914,-1.595982 -2.79105,-1.863452 -1.1619,-0.26748 -2.74417,0.02679 -3.71088,1.179773 -0.77648,0.926081 -0.79033,1.559367 -0.65836,2.500106 0.066,0.470361 0.23464,1.102763 0.87488,1.628842 0.64025,0.52609 1.64191,0.594 2.27377,0.39429 0.42447,-0.127532 0.79015,-0.40077 1.03301,-0.77153 -0.007,0.16995 0.12119,0.304617 0.0568,0.500229 -0.17995,0.547008 -0.6391,1.113277 -1.14257,1.398365 -1.71536,0.97132 -3.89959,-0.09675 -4.91029,-1.841748 -2.76007,-4.765289 0.46203,-7.845205 3.90518,-9.3653211 -3.76696,-0.011316 -9.55077,3.1109191 -15.87242,-11.3615796 z"
       id="path930" />
    <path
       style="opacity:1;vector-effect:none;fill:#00ff00;fill-opacity:1;stroke:none;stroke-width:0.44968703;stroke-linecap:butt;stroke-linejoin:miter;stroke-miterlimit:4;stroke-dasharray:none;stroke-dashoffset:0;stroke-opacity:1"
       d="m 353.30527,18.375512 c -9.69044,5.613397 -17.24436,14.787734 -21.81934,28.926917 2.84913,-4.468262 6.01191,-8.656027 9.73636,-12.259199 6.52227,-6.856225 11.86241,-9.62234 15.99799,-10.559047 -2.66444,-1.620282 -3.76781,-3.785989 -3.91501,-6.108671 z"
       id="path928" />
    <path
       style="opacity:1;vector-effect:none;fill:#00ff00;fill-opacity:1;stroke:none;stroke-width:0.44968703;stroke-linecap:butt;stroke-linejoin:miter;stroke-miterlimit:4;stroke-dasharray:none;stroke-dashoffset:0;stroke-opacity:1"
       d="m 401.51319,18.375512 c -0.1472,2.322682 -1.25057,4.488389 -3.91501,6.108671 4.13558,0.936707 9.47572,3.702822 15.99799,10.559047 3.72444,3.603172 6.88723,7.790937 9.73635,12.259199 -4.57497,-14.139183 -12.12889,-23.31352 -21.81933,-28.926917 z"
       id="path926" />
    <path
       style="opacity:1;vector-effect:none;fill:#0000ff;fill-opacity:1;stroke:none;stroke-width:0.44968703;stroke-linecap:butt;stroke-linejoin:miter;stroke-miterlimit:4;stroke-dasharray:none;stroke-dashoffset:0;stroke-opacity:1"
       d="m 377.40923,24.486252 c -27.61406,6.8e-5 -49.99976,22.458484 -50.00005,50.162311 0.022,20.664821 12.67344,39.201387 31.86937,46.694827 -16.5243,-7.20747 -27.21052,-23.517167 -27.22004,-41.544942 2.6e-4,-25.046509 20.30384,-45.351174 45.35034,-45.351565 25.04649,2.64e-4 45.35084,20.304728 45.3511,45.351237 -0.01,18.027773 -10.69574,34.3378 -27.22005,41.54527 19.19594,-7.49344 31.84739,-26.030006 31.86938,-46.694827 -2.7e-4,-27.703827 -22.38599,-50.162243 -50.00005,-50.162311 z"
       id="path817-62-3-5-9-7" />
  </g>
  <g
     inkscape:groupmode="layer"
     id="layer2"
     inkscape:label="centermark">
    <path
       style="fill:#ff0000;fill-opacity:1;stroke:none;stroke-width:0.22359198px;stroke-linecap:butt;stroke-linejoin:miter;stroke-opacity:1"
       d="m 264.51293,85.672815 v -9.999999 l 10,9.999999 z"
       id="path826-7"
       inkscape:connector-curvature="0"
       sodipodi:nodetypes="cccc" />
    <path
       style="fill:#ff0000;fill-opacity:1;stroke:none;stroke-width:0.22359198px;stroke-linecap:butt;stroke-linejoin:miter;stroke-opacity:1"
       d="m 264.51293,85.672815 v 10.000001 l -10,-10.000001 z"
       id="path826-3-6"
       inkscape:connector-curvature="0"
       sodipodi:nodetypes="cccc" />
    <path
       style="fill:#000000;fill-opacity:1;stroke:none;stroke-width:0.22359198px;stroke-linecap:butt;stroke-linejoin:miter;stroke-opacity:1"
       d="M 377.40885,79.798449 V 69.79845 l 10,9.999999 z"
       id="path826-76"
       inkscape:connector-curvature="0"
       sodipodi:nodetypes="cccc" />
    <path
       style="fill:#000000;fill-opacity:1;stroke:none;stroke-width:0.22359198px;stroke-linecap:butt;stroke-linejoin:miter;stroke-opacity:1"
       d="M 377.40885,79.798449 V 89.79845 l -10,-10.000001 z"
       id="path826-3-4"
       inkscape:connector-curvature="0"
       sodipodi:nodetypes="cccc" />
    <path
       style="fill:#6c6c6d;fill-opacity:1;stroke:none;stroke-width:0.22359198px;stroke-linecap:butt;stroke-linejoin:miter;stroke-opacity:1"
       d="m 154.97,89.815001 v -10 l 10,10 z"
       id="path826"
       inkscape:connector-curvature="0"
       sodipodi:nodetypes="cccc" />
    <path
       style="fill:#6c6c6d;fill-opacity:1;stroke:none;stroke-width:0.22359198px;stroke-linecap:butt;stroke-linejoin:miter;stroke-opacity:1"
       d="m 154.97,89.815001 v 10 l -10,-10 z"
       id="path826-3"
       inkscape:connector-curvature="0"
       sodipodi:nodetypes="cccc" />
  </g>
</svg>
